<svg width="127" height="30" viewBox="0 0 127 30" fill="none" xmlns="http://www.w3.org/2000/svg">
<g opacity="0.6">
<path d="M37.0633 8.63439H40.2286V21.3709H37.0633V8.63439ZM41.4842 16.5619C41.4842 13.4119 43.4256 11.5324 46.4222 11.5324C49.4187 11.5324 51.3601 13.4119 51.3601 16.5619C51.3601 19.7119 49.4609 21.6019 46.4222 21.6019C43.3834 21.6019 41.4842 19.7644 41.4842 16.5619ZM48.1842 16.5619C48.1842 14.8294 47.4984 13.8109 46.4222 13.8109C45.3459 13.8109 44.6707 14.8609 44.6707 16.5619C44.6707 18.2629 45.3354 19.2919 46.4222 19.2919C47.5089 19.2919 48.1842 18.3259 48.1842 16.5724V16.5619ZM52.5524 21.9904H55.5911C55.7357 22.3101 55.9802 22.5748 56.2882 22.7451C56.5962 22.9154 56.9512 22.9821 57.3004 22.9354C58.5032 22.9354 59.1363 22.2844 59.1363 21.3394V19.5754H59.073C58.8208 20.116 58.4116 20.569 57.8981 20.876C57.3847 21.1829 56.7906 21.3297 56.1925 21.2974C53.8818 21.2974 52.3519 19.5439 52.3519 16.5304C52.3519 13.5169 53.808 11.6164 56.2347 11.6164C56.8515 11.5923 57.461 11.7564 57.9815 12.0867C58.502 12.417 58.9086 12.8977 59.1468 13.4644V11.7109H62.3122V21.2659C62.3122 23.5654 60.2758 24.9934 57.2687 24.9934C54.4727 24.9934 52.7317 23.7439 52.5524 22.0009V21.9904ZM59.1468 16.5514C59.1468 15.0184 58.4399 14.0524 57.3215 14.0524C56.2031 14.0524 55.5172 15.0079 55.5172 16.5514C55.5172 18.0949 56.1925 18.9664 57.3215 18.9664C58.4505 18.9664 59.1468 18.1159 59.1468 16.5619V16.5514ZM63.5045 16.5514C63.5045 13.4014 65.4459 11.5219 68.4424 11.5219C71.4389 11.5219 73.3909 13.4014 73.3909 16.5514C73.3909 19.7014 71.4917 21.5914 68.4424 21.5914C65.3931 21.5914 63.5045 19.7644 63.5045 16.5619V16.5514ZM70.2044 16.5514C70.2044 14.8189 69.5186 13.8004 68.4424 13.8004C67.3662 13.8004 66.7437 14.8609 66.7437 16.5724C66.7437 18.2839 67.4084 19.3024 68.4846 19.3024C69.5608 19.3024 70.2044 18.3259 70.2044 16.5724V16.5514ZM74.5937 9.42189C74.5854 9.10385 74.6722 8.79052 74.843 8.52162C75.0139 8.25273 75.2612 8.04037 75.5534 7.91147C75.8457 7.78257 76.1699 7.74294 76.4848 7.79759C76.7998 7.85225 77.0913 7.99873 77.3225 8.21848C77.5537 8.43822 77.7141 8.72132 77.7834 9.0319C77.8527 9.34248 77.8278 9.66655 77.7118 9.96302C77.5958 10.2595 77.394 10.515 77.1319 10.6972C76.8699 10.8794 76.5593 10.98 76.2397 10.9864C76.0278 11.0009 75.8152 10.9716 75.6152 10.9004C75.4152 10.8292 75.2322 10.7176 75.0777 10.5727C74.9231 10.4277 74.8003 10.2526 74.717 10.0581C74.6337 9.8637 74.5918 9.65423 74.5937 9.44289V9.42189ZM74.5937 11.7319H77.759V21.3709H74.5937V11.7319ZM89.2492 16.5514C89.2492 19.7014 87.8459 21.4969 85.4403 21.4969C84.8234 21.5363 84.2093 21.3862 83.6809 21.067C83.1525 20.7477 82.7354 20.2747 82.486 19.7119H82.4226V24.4579H79.2573V11.7109H82.4226V13.4329H82.486C82.7238 12.8608 83.133 12.3754 83.6578 12.0429C84.1826 11.7104 84.7976 11.5468 85.4192 11.5744C87.8459 11.6164 89.2914 13.4224 89.2914 16.5724L89.2492 16.5514ZM86.0839 16.5514C86.0839 15.0184 85.377 14.0419 84.2691 14.0419C83.1612 14.0419 82.4543 15.0289 82.4437 16.5514C82.4332 18.0739 83.1612 19.0504 84.2691 19.0504C85.377 19.0504 86.0839 18.0949 86.0839 16.5724V16.5514ZM94.6831 11.5114C97.3103 11.5114 98.9035 12.7504 98.9774 14.7349H96.0969C96.0969 14.0524 95.5272 13.6219 94.6514 13.6219C93.7757 13.6219 93.3853 13.9579 93.3853 14.4514C93.3853 14.9449 93.7335 15.1024 94.4404 15.2494L96.4662 15.6589C98.3971 16.0684 99.2201 16.8454 99.2201 18.3049C99.2201 20.2999 97.3947 21.5809 94.7042 21.5809C92.0136 21.5809 90.2516 20.2999 90.1144 18.3364H93.1637C93.2587 19.0504 93.8284 19.4704 94.7569 19.4704C95.6854 19.4704 96.1075 19.1659 96.1075 18.6619C96.1075 18.1579 95.812 18.0529 95.0524 17.8954L93.227 17.5069C91.3384 17.1184 90.3465 16.1209 90.3465 14.6509C90.3677 12.7609 92.0664 11.5324 94.6831 11.5324V11.5114ZM109.782 21.3499H106.732V19.5544H106.669C106.502 20.1572 106.132 20.6848 105.621 21.0497C105.111 21.4145 104.49 21.5945 103.863 21.5599C103.382 21.5871 102.9 21.5113 102.452 21.3375C102.003 21.1638 101.596 20.8961 101.26 20.5527C100.924 20.2093 100.666 19.7981 100.503 19.3469C100.341 18.8958 100.277 18.4151 100.317 17.9374V11.7109H103.483V17.2129C103.483 18.3574 104.074 18.9664 105.055 18.9664C105.285 18.9669 105.512 18.9184 105.722 18.8242C105.932 18.73 106.119 18.5923 106.271 18.4202C106.423 18.2482 106.536 18.0459 106.603 17.8268C106.67 17.6077 106.689 17.3769 106.659 17.1499V11.7109H109.824L109.782 21.3499ZM111.312 11.7109H114.371V13.5694H114.435C114.603 12.9745 114.964 12.4519 115.463 12.0833C115.961 11.7147 116.568 11.521 117.189 11.5324C117.82 11.4821 118.448 11.6702 118.946 12.0593C119.445 12.4484 119.778 13.01 119.879 13.6324H119.942C120.134 13.0034 120.53 12.4556 121.069 12.0754C121.608 11.6952 122.258 11.5042 122.918 11.5324C123.348 11.518 123.777 11.5939 124.176 11.7551C124.575 11.9164 124.936 12.1594 125.234 12.4684C125.533 12.7773 125.763 13.1453 125.909 13.5485C126.055 13.9516 126.115 14.3809 126.083 14.8084V21.3709H122.918V15.6484C122.918 14.5984 122.443 14.1154 121.557 14.1154C121.359 14.1137 121.163 14.1543 120.983 14.2343C120.802 14.3143 120.641 14.4319 120.51 14.5792C120.379 14.7265 120.281 14.9 120.224 15.088C120.166 15.2761 120.149 15.4744 120.175 15.6694V21.3709H117.168V15.6064C117.168 14.6404 116.693 14.1154 115.828 14.1154C115.628 14.1154 115.43 14.1577 115.248 14.2393C115.066 14.3209 114.903 14.4401 114.77 14.5889C114.637 14.7378 114.538 14.9129 114.478 15.1028C114.419 15.2926 114.4 15.4929 114.424 15.6904V21.3709H111.259L111.312 11.7109Z" fill="#1D2130"/>
<path d="M28.2109 9.21194C27.674 7.99012 26.9633 6.85147 26.1007 5.83095C24.8255 4.2773 23.2342 3.01001 21.4315 2.11248C19.6287 1.21496 17.6554 0.707542 15.6413 0.623639C13.6273 0.539735 11.6183 0.881242 9.74645 1.62569C7.87461 2.37013 6.18242 3.50063 4.78126 4.94278C3.38009 6.38493 2.30171 8.10603 1.6171 9.99281C0.932485 11.8796 0.657159 13.8893 0.809245 15.8895C0.96133 17.8898 1.53738 19.8354 2.49947 21.5982C3.46157 23.361 4.78789 24.901 6.39116 26.1169C7.4199 26.9127 8.55662 27.5596 9.76753 28.0384C11.4652 28.7308 13.2822 29.0874 15.117 29.0884C18.9042 29.0801 22.5336 27.5778 25.2096 24.9108C27.8856 22.2439 29.3899 18.6298 29.3926 14.8609C29.3954 12.9169 28.993 10.9934 28.2109 9.21194ZM15.1064 3.51044C16.754 3.51027 18.3817 3.86864 19.8755 4.56044C19.5113 4.71707 19.1283 4.82647 18.736 4.88594C17.4452 5.07189 16.2494 5.66827 15.3271 6.58607C14.4048 7.50387 13.8055 8.69387 13.6187 9.97844C13.5367 10.6989 13.2074 11.3691 12.6865 11.876C12.1656 12.3829 11.4849 12.6955 10.7593 12.7609C9.4685 12.9469 8.27271 13.5433 7.35044 14.4611C6.42817 15.3789 5.82888 16.5689 5.64203 17.8534C5.57877 18.5385 5.28508 19.1822 4.80849 19.6804C3.98619 17.9514 3.61679 16.0434 3.73467 14.134C3.85255 12.2247 4.45387 10.3761 5.48267 8.76018C6.51148 7.14428 7.93434 5.81364 9.61883 4.89208C11.3033 3.97053 13.1947 3.48801 15.117 3.48944L15.1064 3.51044ZM6.38061 22.2109C6.50722 22.0954 6.63384 21.9904 6.76045 21.8644C7.69914 20.9588 8.30167 19.7632 8.46974 18.4729C8.53788 17.7476 8.86329 17.0702 9.38768 16.5619C9.89229 16.0392 10.5715 15.7181 11.2974 15.6589C12.5883 15.473 13.7841 14.8766 14.7063 13.9588C15.6286 13.041 16.2279 11.851 16.4147 10.5664C16.4604 9.80783 16.7875 9.09313 17.3327 8.56094C17.8498 8.04839 18.5354 7.7389 19.2636 7.68944C20.4494 7.52707 21.5554 7.00244 22.4289 6.18794C23.4235 7.00912 24.2662 7.99698 24.919 9.10694C24.8789 9.16086 24.8329 9.21017 24.7818 9.25394C24.2782 9.78125 23.5998 10.1094 22.872 10.1779C21.5799 10.3606 20.3823 10.956 19.4594 11.8744C18.5366 12.7928 17.9383 13.9846 17.7547 15.2704C17.6804 15.9933 17.3572 16.6683 16.8399 17.1812C16.3227 17.694 15.6431 18.0131 14.9165 18.0844C13.6219 18.269 12.4216 18.8642 11.494 19.7816C10.5664 20.699 9.96093 21.8898 9.76753 23.1769C9.71074 23.6901 9.53365 24.1828 9.25052 24.6154C8.16797 23.9758 7.19841 23.1635 6.38061 22.2109ZM15.1064 26.2639C14.0357 26.2651 12.9702 26.1167 11.9411 25.8229C12.2931 25.1698 12.522 24.4581 12.6163 23.7229C12.6903 23.0017 13.012 22.3279 13.5271 21.8153C14.0422 21.3026 14.7193 20.9825 15.444 20.9089C16.7368 20.7251 17.935 20.1296 18.8593 19.2117C19.7836 18.2937 20.3845 17.1025 20.5719 15.8164C20.6458 15.0952 20.9675 14.4214 21.4827 13.9088C21.9978 13.3961 22.6748 13.076 23.3996 13.0024C24.3724 12.8765 25.2997 12.5161 26.1007 11.9524C26.5455 13.6302 26.5982 15.3871 26.2547 17.0884C25.9113 18.7896 25.1808 20.3899 24.1193 21.7665C23.0579 23.1432 21.6936 24.2596 20.1313 25.0301C18.569 25.8006 16.8501 26.2047 15.1064 26.2114V26.2639Z" fill="#1D2130"/>
</g>
</svg>
