<svg width="138" height="32" viewBox="0 0 138 32" fill="none" xmlns="http://www.w3.org/2000/svg">
<g opacity="0.6">
<path d="M33.6484 7.63477H36.8138V22.9518H33.6484V7.63477Z" fill="#1D2130"/>
<path d="M38.5864 17.7048C38.5864 16.6027 38.9121 15.5256 39.5222 14.6097C40.1322 13.6939 40.9992 12.9806 42.0133 12.5604C43.0273 12.1401 44.1427 12.0318 45.2181 12.2491C46.2935 12.4664 47.2804 12.9996 48.0538 13.7811C48.8272 14.5625 49.3523 15.5571 49.5625 16.6387C49.7726 17.7203 49.6584 18.8402 49.2343 19.8565C48.8102 20.8728 48.0952 21.7397 47.1801 22.3474C46.265 22.955 45.191 23.2761 44.0941 23.2698C43.3665 23.2755 42.6452 23.1352 41.9723 22.8571C41.2994 22.5791 40.6886 22.1689 40.1756 21.6506C39.6626 21.1322 39.2578 20.5162 38.9849 19.8387C38.712 19.1611 38.5765 18.4356 38.5864 17.7048ZM46.5208 17.7048C46.5084 17.2297 46.3568 16.7688 46.085 16.3798C45.8132 15.9908 45.4333 15.691 44.9928 15.5178C44.5522 15.3446 44.0706 15.3057 43.6082 15.406C43.1458 15.5063 42.7231 15.7414 42.393 16.0817C42.0629 16.4221 41.8399 16.8528 41.7521 17.3198C41.6643 17.7868 41.7155 18.2694 41.8993 18.7073C42.0831 19.1452 42.3913 19.519 42.7855 19.7818C43.1796 20.0447 43.6421 20.185 44.1152 20.1852C44.4372 20.1915 44.7572 20.131 45.0549 20.0074C45.3527 19.8839 45.6219 19.7 45.8457 19.4672C46.0695 19.2344 46.243 18.9577 46.3556 18.6545C46.4681 18.3512 46.5172 18.0279 46.4997 17.7048H46.5208Z" fill="#1D2130"/>
<path d="M62.126 12.4578V22.4324C62.126 25.9516 59.3827 27.4462 56.6077 27.4462C55.629 27.5269 54.6472 27.3315 53.7729 26.882C52.8987 26.4326 52.1666 25.7469 51.6593 24.9022L54.3287 23.3546C54.545 23.7927 54.8891 24.1542 55.3151 24.3909C55.7411 24.6277 56.2288 24.7283 56.7133 24.6796C57.0218 24.7178 57.335 24.687 57.6304 24.5894C57.9258 24.4918 58.196 24.3299 58.4218 24.1152C58.6477 23.9005 58.8235 23.6383 58.9367 23.3474C59.0499 23.0565 59.0977 22.744 59.0767 22.4324V21.4678C58.7084 21.9164 58.241 22.2727 57.7117 22.5082C57.1824 22.7437 56.6057 22.852 56.0274 22.8246C54.6283 22.8246 53.2864 22.2662 52.297 21.2722C51.3077 20.2783 50.7519 18.9302 50.7519 17.5246C50.7519 16.1189 51.3077 14.7708 52.297 13.7769C53.2864 12.783 54.6283 12.2246 56.0274 12.2246C56.6057 12.1971 57.1824 12.3054 57.7117 12.5409C58.241 12.7765 58.7084 13.1327 59.0767 13.5814V12.5214L62.126 12.4578ZM59.0767 17.4928C59.0978 16.9856 58.9673 16.4838 58.7022 16.0517C58.437 15.6196 58.0493 15.2771 57.5888 15.0682C57.1284 14.8593 56.6162 14.7936 56.1183 14.8794C55.6203 14.9653 55.1593 15.1988 54.7945 15.55C54.4298 15.9012 54.1779 16.354 54.0713 16.8502C53.9648 17.3463 54.0084 17.8632 54.1965 18.3342C54.3847 18.8053 54.7088 19.209 55.1272 19.4935C55.5456 19.7781 56.0392 19.9303 56.5444 19.9308C56.8741 19.9546 57.2051 19.9087 57.516 19.7961C57.827 19.6835 58.1109 19.5065 58.3496 19.2768C58.5882 19.047 58.7762 18.7695 58.9015 18.4622C59.0267 18.1549 59.0864 17.8247 59.0767 17.4928Z" fill="#1D2130"/>
<path d="M63.9091 17.7048C63.9091 16.6036 64.2342 15.5273 64.8434 14.6119C65.4525 13.6965 66.3183 12.9832 67.3311 12.5624C68.3439 12.1415 69.4582 12.0319 70.533 12.2475C71.6078 12.4631 72.5948 12.9941 73.3691 13.7735C74.1433 14.5528 74.6701 15.5454 74.8826 16.6256C75.0952 17.7058 74.984 18.8251 74.5631 19.8417C74.1422 20.8584 73.4306 21.7268 72.5183 22.337C71.6059 22.9473 70.5339 23.2719 69.4379 23.2698C68.709 23.2769 67.986 23.1377 67.3113 22.8604C66.6367 22.5831 66.0239 22.1733 65.5089 21.655C64.994 21.1367 64.5872 20.5203 64.3125 19.8419C64.0378 19.1636 63.9006 18.437 63.9091 17.7048ZM71.8435 17.7048C71.8311 17.2292 71.6792 16.7679 71.4069 16.3787C71.1347 15.9895 70.7541 15.6897 70.313 15.5168C69.8719 15.3439 69.3898 15.3057 68.9271 15.4069C68.4644 15.508 68.0417 15.7441 67.712 16.0856C67.3823 16.427 67.1603 16.8586 67.0737 17.3263C66.987 17.794 67.0397 18.2769 67.2251 18.7147C67.4105 19.1524 67.7204 19.5254 68.1159 19.787C68.5114 20.0486 68.9749 20.1871 69.4484 20.1852C69.7705 20.1915 70.0904 20.131 70.3882 20.0074C70.686 19.8839 70.9551 19.7 71.1789 19.4672C71.4027 19.2344 71.5763 18.9577 71.6889 18.6545C71.8014 18.3512 71.8505 18.0279 71.833 17.7048H71.8435Z" fill="#1D2130"/>
<path d="M76.4333 9.64871C76.4333 9.27554 76.5435 8.91074 76.7499 8.60046C76.9562 8.29018 77.2496 8.04834 77.5927 7.90553C77.9359 7.76273 78.3135 7.72536 78.6778 7.79816C79.0422 7.87097 79.3768 8.05067 79.6395 8.31454C79.9021 8.57842 80.081 8.91461 80.1535 9.28061C80.2259 9.64662 80.1887 10.026 80.0466 10.3708C79.9044 10.7155 79.6637 11.0102 79.3549 11.2175C79.046 11.4249 78.6829 11.5355 78.3114 11.5355C77.815 11.53 77.3405 11.3294 76.9895 10.9768C76.6385 10.6241 76.4388 10.1474 76.4333 9.64871ZM76.7393 12.4577H79.9047V22.9517H76.7393V12.4577Z" fill="#1D2130"/>
<path d="M93.4523 17.7048C93.4878 18.4027 93.3855 19.1008 93.1514 19.7588C92.9173 20.4169 92.556 21.0219 92.0882 21.5391C91.6204 22.0564 91.0555 22.4755 90.4258 22.7726C89.7962 23.0696 89.1143 23.2386 88.4194 23.2698C87.8297 23.3092 87.2388 23.2143 86.6907 22.9922C86.1426 22.7702 85.6515 22.4266 85.2541 21.9872V27.1706H82.0887V12.4578H85.2541V13.4436C85.652 13.0055 86.1435 12.6635 86.6916 12.4432C87.2398 12.2229 87.8305 12.1301 88.4194 12.1716C89.1115 12.2029 89.7907 12.3709 90.4182 12.6659C91.0457 12.9609 91.6092 13.3772 92.0765 13.891C92.5439 14.4048 92.9059 15.0061 93.142 15.6604C93.378 16.3148 93.4835 17.0095 93.4523 17.7048ZM90.2869 17.7048C90.2745 17.2125 90.1176 16.7348 89.8361 16.3317C89.5546 15.9285 89.1608 15.6178 88.7043 15.4385C88.2477 15.2592 87.7486 15.2193 87.2696 15.3237C86.7905 15.4282 86.3528 15.6724 86.0113 16.0257C85.6698 16.379 85.4397 16.8257 85.3498 17.3098C85.2599 17.7939 85.3143 18.294 85.5061 18.7472C85.6979 19.2004 86.0186 19.5867 86.428 19.8575C86.8374 20.1284 87.3172 20.2719 87.8074 20.27C88.1432 20.2843 88.4782 20.2272 88.7904 20.1023C89.1027 19.9774 89.3851 19.7877 89.6192 19.5455C89.8533 19.3032 90.0339 19.014 90.1489 18.6968C90.264 18.3796 90.311 18.0415 90.2869 17.7048Z" fill="#1D2130"/>
<path d="M103.085 19.8035C103.085 22.2203 100.975 23.2485 98.7384 23.2485C97.8261 23.331 96.9101 23.1368 96.1088 22.6908C95.3076 22.2449 94.6578 21.5677 94.2436 20.7469L96.9658 19.1993C97.0736 19.5776 97.3075 19.9071 97.6282 20.1329C97.949 20.3586 98.3372 20.4669 98.7278 20.4395C99.477 20.4395 99.8568 20.2063 99.8568 19.7823C99.8568 18.6269 94.7184 19.2417 94.7184 15.6059C94.7184 13.3163 96.6387 12.1715 98.8123 12.1715C99.6385 12.1344 100.459 12.3227 101.187 12.7165C101.916 13.1103 102.524 13.6949 102.948 14.4081L100.226 15.8497C100.106 15.5763 99.9093 15.3437 99.6603 15.18C99.4113 15.0164 99.1204 14.9287 98.8228 14.9275C98.2741 14.9275 97.9471 15.1395 97.9471 15.5105C97.9471 16.7189 103.085 15.9239 103.085 19.8035Z" fill="#1D2130"/>
<path d="M114.554 12.4578V22.9518H111.389V21.966C111.03 22.4024 110.573 22.7477 110.056 22.9742C109.539 23.2006 108.977 23.3019 108.414 23.2698C106.303 23.2698 104.499 21.754 104.499 18.9238V12.4578H107.665V18.4468C107.64 18.6972 107.669 18.95 107.751 19.1878C107.833 19.4256 107.965 19.6427 108.139 19.8241C108.312 20.0056 108.523 20.147 108.756 20.2386C108.99 20.3302 109.24 20.3699 109.49 20.3548C110.629 20.3548 111.431 19.6764 111.431 18.2348V12.4578H114.554Z" fill="#1D2130"/>
<path d="M132.491 16.5069V22.9517H129.326V16.7825C129.326 15.7225 128.83 15.0653 127.828 15.0653C126.825 15.0653 126.192 15.7967 126.192 17.0369V22.9517H123.027V16.7825C123.027 15.7225 122.531 15.0653 121.529 15.0653C120.526 15.0653 119.893 15.7967 119.893 17.0369V22.9517H116.728V12.4577H119.893V13.4223C120.221 12.9962 120.649 12.6587 121.139 12.4403C121.629 12.222 122.166 12.1296 122.7 12.1715C123.235 12.1435 123.769 12.2558 124.248 12.4974C124.727 12.7389 125.135 13.1015 125.433 13.5495C125.78 13.0815 126.241 12.7096 126.77 12.4686C127.3 12.2276 127.881 12.1254 128.461 12.1715C130.93 12.1715 132.491 13.8887 132.491 16.5069Z" fill="#1D2130"/>
<path d="M14.7936 4.87878V0.373779H0.655029V31.3258H14.7936V26.8208C11.8973 26.8208 9.11962 25.6649 7.07165 23.6074C5.02367 21.55 3.87313 18.7595 3.87313 15.8498C3.87313 12.9401 5.02367 10.1496 7.07165 8.09211C9.11962 6.03465 11.8973 4.87878 14.7936 4.87878Z" fill="#1D2130"/>
<path d="M14.7936 4.87878V26.8208C17.6898 26.8208 20.4674 25.6649 22.5154 23.6074C24.5634 21.55 25.7139 18.7595 25.7139 15.8498C25.7139 12.9401 24.5634 10.1496 22.5154 8.09211C20.4674 6.03465 17.6898 4.87878 14.7936 4.87878Z" fill="#1D2130"/>
<path d="M135.15 12.3942C136.432 12.3942 137.472 11.3501 137.472 10.0622C137.472 8.77422 136.432 7.73015 135.15 7.73015C133.868 7.73015 132.829 8.77422 132.829 10.0622C132.829 11.3501 133.868 12.3942 135.15 12.3942Z" fill="#1D2130"/>
</g>
</svg>
