<svg width="143" height="29" viewBox="0 0 143 29" fill="none" xmlns="http://www.w3.org/2000/svg">
<g opacity="0.6">
<path d="M21.3558 13.1382C20.9581 13.5386 20.6535 14.0218 20.4638 14.5533C20.274 15.0849 20.2038 15.6518 20.2581 16.2137L20.2392 16.1948C20.295 16.8561 20.2058 17.5217 19.978 18.145C19.7502 18.7683 19.3891 19.3344 18.92 19.8037C18.451 20.273 17.8852 20.6342 17.2622 20.8622C16.6391 21.0901 15.9739 21.1793 15.3129 21.1235L15.3318 21.1424C14.5411 21.0688 13.7469 21.2409 13.0576 21.6354C12.3683 22.0299 11.8173 22.6274 11.4799 23.3467C11.1424 24.0659 11.0349 24.8717 11.172 25.6543C11.3091 26.4369 11.6841 27.1581 12.2459 27.7197C12.8076 28.2812 13.5289 28.6558 14.3112 28.7922C15.0935 28.9286 15.8989 28.8203 16.6174 28.4821C17.336 28.1438 17.9328 27.5921 18.3264 26.902C18.7201 26.212 18.8914 25.4173 18.8171 24.6263L18.8371 24.6452C18.7813 23.9838 18.8704 23.3183 19.0982 22.695C19.3261 22.0716 19.6871 21.5056 20.1562 21.0363C20.6253 20.567 21.191 20.2057 21.8141 19.9778C22.4371 19.7498 23.1023 19.6607 23.7633 19.7165L23.7434 19.6976C24.3893 19.7557 25.0394 19.6497 25.6335 19.3896C26.2276 19.1294 26.7464 18.7233 27.1419 18.2091C27.5373 17.6949 27.7967 17.0891 27.8958 16.4479C27.995 15.8067 27.9308 15.1508 27.7091 14.5411C27.4874 13.9313 27.1155 13.3874 26.6278 12.9598C26.1401 12.5321 25.5524 12.2345 24.9192 12.0946C24.2859 11.9547 23.6276 11.977 23.0052 12.1595C22.3829 12.3419 21.8166 12.6786 21.359 13.1382H21.3558Z" fill="#1D2130"/>
<path d="M13.6137 18.6664L13.5938 18.6475C14.1556 18.7042 14.723 18.6352 15.2549 18.4456C15.7868 18.2559 16.2699 17.9504 16.6694 17.5511C17.0688 17.1518 17.3745 16.6686 17.5645 16.1366C17.7544 15.6046 17.8238 15.037 17.7676 14.4748L17.7875 14.4937C17.7317 13.8324 17.8209 13.1668 18.0487 12.5435C18.2765 11.9202 18.6376 11.3541 19.1067 10.8848C19.5757 10.4155 20.1415 10.0543 20.7645 9.82633C21.3876 9.59838 22.0528 9.50921 22.7138 9.56503L22.6939 9.54614C23.4846 9.62043 24.2791 9.44887 24.9688 9.05484C25.6585 8.66081 26.21 8.06351 26.5479 7.3444C26.8859 6.62529 26.9939 5.81938 26.8572 5.03659C26.7205 4.25381 26.3458 3.53227 25.7842 2.97038C25.2226 2.40848 24.5014 2.0336 23.719 1.89686C22.9366 1.76012 22.1311 1.86818 21.4123 2.2063C20.6936 2.54442 20.0966 3.09613 19.7027 3.7862C19.3089 4.47626 19.1374 5.27108 19.2117 6.06223L19.1928 6.04228C19.2488 6.70367 19.1598 7.36931 18.932 7.99272C18.7042 8.61612 18.3432 9.18227 17.8741 9.65162C17.405 10.121 16.8391 10.4822 16.216 10.7101C15.5929 10.938 14.9276 11.027 14.2665 10.971L14.2854 10.9909C13.7236 10.9343 13.1562 11.0033 12.6243 11.1929C12.0924 11.3825 11.6093 11.6881 11.2098 12.0874C10.8104 12.4867 10.5047 12.9698 10.3147 13.5019C10.1248 14.0339 10.0554 14.6015 10.1116 15.1636L10.0927 15.1447C10.1483 15.806 10.0591 16.4715 9.83118 17.0948C9.60328 17.718 9.24222 18.284 8.77319 18.7533C8.30416 19.2225 7.73844 19.5838 7.11551 19.8118C6.49258 20.0398 5.82743 20.1291 5.16645 20.0734L5.18534 20.0923C4.39458 20.018 3.60015 20.1896 2.91043 20.5836C2.2207 20.9777 1.66925 21.575 1.3313 22.2941C0.993348 23.0132 0.885342 23.8191 1.02202 24.6019C1.15869 25.3847 1.53339 26.1062 2.09501 26.6681C2.65662 27.23 3.37781 27.6049 4.16021 27.7416C4.94261 27.8784 5.74812 27.7703 6.46688 27.4322C7.18563 27.0941 7.78264 26.5423 8.17648 25.8523C8.57031 25.1622 8.74179 24.3674 8.66753 23.5762L8.68747 23.5951C8.63167 22.9338 8.7208 22.2682 8.94864 21.6449C9.17647 21.0216 9.53753 20.4555 10.0066 19.9862C10.4757 19.5169 11.0415 19.1557 11.6645 18.9277C12.2875 18.6998 12.9527 18.6106 13.6137 18.6664Z" fill="#1D2130"/>
<path d="M6.58015 16.5591C6.97793 16.1588 7.28247 15.6756 7.47205 15.144C7.66163 14.6124 7.73156 14.0455 7.67686 13.4837L7.6968 13.5026C7.64096 12.841 7.73013 12.1753 7.95809 11.5518C8.18605 10.9283 8.54729 10.3621 9.0166 9.89278C9.48591 9.42344 10.052 9.06225 10.6752 8.83445C11.2985 8.60665 11.964 8.51771 12.6252 8.57386L12.6052 8.55497C13.3957 8.62906 14.1898 8.4574 14.8792 8.0634C15.5686 7.6694 16.1198 7.07224 16.4575 6.35335C16.7953 5.63447 16.9032 4.82885 16.7665 4.04636C16.6299 3.26387 16.2553 2.5426 15.6939 1.98092C15.1325 1.41923 14.4115 1.04447 13.6294 0.90773C12.8473 0.770995 12.0421 0.878947 11.3236 1.21686C10.605 1.55478 10.0082 2.1062 9.61437 2.79595C9.22057 3.4857 9.049 4.28018 9.12305 5.07107L9.10416 5.05217C9.15996 5.71351 9.07083 6.37907 8.84299 7.00239C8.61516 7.62572 8.2541 8.19178 7.78503 8.66109C7.31596 9.13039 6.75017 9.49162 6.12715 9.71957C5.50413 9.94752 4.8389 10.0367 4.17789 9.98087L4.19677 9.99977C3.55089 9.94182 2.90084 10.0479 2.30685 10.3082C1.71286 10.5685 1.19416 10.9747 0.79881 11.4889C0.403458 12.0032 0.144249 12.609 0.0452039 13.2502C-0.0538415 13.8914 0.0104804 14.5472 0.23221 15.1569C0.453939 15.7666 0.825902 16.3104 1.31363 16.738C1.80136 17.1655 2.38907 17.463 3.0223 17.6029C3.65553 17.7427 4.3138 17.7204 4.9361 17.5379C5.55841 17.3554 6.12461 17.0188 6.58225 16.5591H6.58015Z" fill="#1D2130"/>
<path d="M39.09 6.08638H42.2069V21.262H39.09V6.08638Z" fill="#1D2130"/>
<path d="M43.9722 16.0656C43.9678 14.975 44.2871 13.9077 44.8895 12.9988C45.4919 12.0899 46.3504 11.3803 47.3562 10.9599C48.362 10.5396 49.4699 10.4273 50.5395 10.6374C51.6092 10.8475 52.5924 11.3704 53.3647 12.1401C54.1371 12.9097 54.6637 13.8913 54.878 14.9606C55.0923 16.0299 54.9845 17.1388 54.5684 18.1468C54.1522 19.1548 53.4465 20.0165 52.5404 20.6229C51.6344 21.2292 50.5689 21.5529 49.4788 21.5529C48.7553 21.5612 48.0373 21.425 47.3669 21.1525C46.6965 20.8799 46.0872 20.4764 45.5745 19.9655C45.0618 19.4546 44.656 18.8465 44.3809 18.1769C44.1058 17.5073 43.9668 16.7896 43.9722 16.0656ZM51.8685 16.0656C51.8555 15.5955 51.7043 15.1397 51.4338 14.7551C51.1632 14.3706 50.7854 14.0743 50.3475 13.9034C49.9096 13.7325 49.4311 13.6945 48.9718 13.7942C48.5124 13.894 48.0927 14.1269 47.7649 14.464C47.4372 14.8011 47.2161 15.2274 47.1292 15.6896C47.0423 16.1517 47.0935 16.6292 47.2764 17.0624C47.4593 17.4957 47.7657 17.8653 48.1575 18.1252C48.5492 18.3851 49.0088 18.5237 49.4788 18.5237C49.8007 18.5323 50.1209 18.474 50.4192 18.3527C50.7175 18.2313 50.9874 18.0494 51.2119 17.8184C51.4365 17.5875 51.6107 17.3125 51.7237 17.0108C51.8367 16.7091 51.886 16.3873 51.8685 16.0656Z" fill="#1D2130"/>
<path d="M67.4082 10.8681V20.7381C67.4082 24.2304 64.6858 25.7067 61.9225 25.7067C60.9496 25.7796 59.9754 25.5829 59.1068 25.1384C58.2382 24.6939 57.5087 24.0186 56.9983 23.1867L59.6577 21.6485C59.8722 22.0821 60.214 22.4399 60.6373 22.6739C61.0606 22.9079 61.5453 23.0069 62.0264 22.9578C62.3339 23.0004 62.647 22.9733 62.9427 22.8785C63.2383 22.7837 63.5088 22.6236 63.7342 22.4101C63.9596 22.1966 64.1342 21.9351 64.2449 21.6449C64.3557 21.3548 64.3998 21.0434 64.3741 20.7339V19.7837C64.0091 20.2305 63.5445 20.5855 63.0176 20.8201C62.4907 21.0548 61.9161 21.1627 61.34 21.135C59.9692 21.0918 58.669 20.5165 57.7146 19.5311C56.7602 18.5456 56.2265 17.2273 56.2265 15.8551C56.2265 14.4829 56.7602 13.1646 57.7146 12.1791C58.669 11.1936 59.9692 10.6184 61.34 10.5752C61.9161 10.5475 62.4907 10.6553 63.0176 10.89C63.5445 11.1247 64.0091 11.4797 64.3741 11.9265V10.866L67.4082 10.8681ZM64.3752 15.8567C64.3961 15.3541 64.2662 14.8567 64.0023 14.4286C63.7383 14.0005 63.3523 13.6612 62.894 13.4544C62.4357 13.2477 61.926 13.1828 61.4306 13.2683C60.9351 13.3538 60.4766 13.5857 60.1139 13.9341C59.7513 14.2825 59.5012 14.7315 59.3958 15.2233C59.2904 15.7152 59.3345 16.2273 59.5225 16.6938C59.7105 17.1604 60.0337 17.56 60.4506 17.8411C60.8674 18.1223 61.3589 18.2723 61.8616 18.2717C62.1891 18.2945 62.5178 18.2485 62.8264 18.1366C63.1351 18.0247 63.4169 17.8493 63.6536 17.6218C63.8904 17.3943 64.077 17.1197 64.2012 16.8157C64.3255 16.5117 64.3847 16.185 64.3752 15.8567Z" fill="#1D2130"/>
<path d="M69.1734 16.0656C69.169 14.975 69.4882 13.9077 70.0907 12.9988C70.6931 12.0899 71.5516 11.3803 72.5574 10.9599C73.5632 10.5396 74.6711 10.4273 75.7407 10.6374C76.8103 10.8475 77.7936 11.3704 78.5659 12.1401C79.3382 12.9097 79.8649 13.8913 80.0792 14.9606C80.2934 16.0299 80.1857 17.1388 79.7695 18.1468C79.3534 19.1548 78.6476 20.0165 77.7416 20.6229C76.8356 21.2292 75.77 21.5529 74.68 21.5529C73.9564 21.5612 73.2385 21.425 72.5681 21.1525C71.8977 20.8799 71.2884 20.4764 70.7757 19.9655C70.263 19.4546 69.8572 18.8465 69.5821 18.1769C69.307 17.5073 69.168 16.7896 69.1734 16.0656ZM77.0697 16.0656C77.0567 15.5955 76.9055 15.1397 76.6349 14.7551C76.3644 14.3706 75.9866 14.0743 75.5487 13.9034C75.1108 13.7325 74.6323 13.6945 74.1729 13.7942C73.7136 13.894 73.2938 14.1269 72.9661 14.464C72.6384 14.8011 72.4172 15.2274 72.3303 15.6896C72.2435 16.1517 72.2946 16.6292 72.4775 17.0624C72.6604 17.4957 72.9669 17.8653 73.3586 18.1252C73.7504 18.3851 74.21 18.5237 74.68 18.5237C75.0019 18.5323 75.3221 18.474 75.6204 18.3527C75.9187 18.2313 76.1886 18.0494 76.4131 17.8184C76.6376 17.5875 76.8119 17.3125 76.9249 17.0108C77.0379 16.7091 77.0872 16.3873 77.0697 16.0656Z" fill="#1D2130"/>
<path d="M81.6402 8.08244C81.6402 7.71238 81.7499 7.35062 81.9554 7.04292C82.1609 6.73522 82.4529 6.49539 82.7947 6.35377C83.1364 6.21215 83.5124 6.1751 83.8752 6.2473C84.238 6.31949 84.5712 6.4977 84.8328 6.75938C85.0943 7.02106 85.2724 7.35445 85.3446 7.71741C85.4167 8.08037 85.3797 8.45658 85.2382 8.79848C85.0966 9.14038 84.8569 9.43261 84.5494 9.6382C84.2418 9.8438 83.8802 9.95354 83.5103 9.95354C83.0159 9.94862 82.543 9.74991 82.1934 9.40007C81.8437 9.05023 81.6451 8.57716 81.6402 8.08244ZM81.955 10.8681H85.073V21.2631H81.9508L81.955 10.8681Z" fill="#1D2130"/>
<path d="M98.5317 16.0656C98.5677 16.7526 98.4676 17.4399 98.2372 18.0881C98.0068 18.7363 97.6506 19.3325 97.1891 19.8424C96.7275 20.3524 96.1698 20.766 95.548 21.0595C94.9261 21.3531 94.2524 21.5208 93.5655 21.5529C92.9879 21.5844 92.4105 21.487 91.8752 21.2676C91.3399 21.0482 90.8601 20.7124 90.4706 20.2845V25.42H87.3536V10.8681H90.4706V11.8446C90.8603 11.417 91.3401 11.0815 91.8754 10.8623C92.4107 10.6431 92.988 10.5457 93.5655 10.5772C94.2525 10.6092 94.9264 10.7768 95.5484 11.0704C96.1704 11.364 96.7282 11.7777 97.1898 12.2878C97.6513 12.7979 98.0075 13.3943 98.2378 14.0426C98.4681 14.691 98.568 15.3785 98.5317 16.0656ZM95.4147 16.0656C95.4025 15.5791 95.2472 15.107 94.9682 14.7084C94.6891 14.3098 94.2988 14.0024 93.846 13.8246C93.3932 13.6469 92.898 13.6067 92.4225 13.7091C91.947 13.8116 91.5122 14.052 91.1727 14.4004C90.8331 14.7488 90.6037 15.1897 90.5134 15.6679C90.423 16.1461 90.4756 16.6403 90.6646 17.0887C90.8536 17.5371 91.1705 17.9198 91.5758 18.1888C91.9811 18.4579 92.4568 18.6014 92.9432 18.6013C93.2771 18.6162 93.6104 18.5603 93.9212 18.4372C94.232 18.3142 94.5133 18.1268 94.7467 17.8874C94.9801 17.648 95.1602 17.3619 95.2753 17.0479C95.3905 16.734 95.438 16.3992 95.4147 16.0656Z" fill="#1D2130"/>
<path d="M108.15 18.1436C108.15 20.5344 106.073 21.5529 103.829 21.5529C102.923 21.6351 102.012 21.4432 101.216 21.0022C100.42 20.5612 99.7736 19.8913 99.3618 19.0791L102.062 17.5409C102.171 17.9163 102.406 18.2429 102.727 18.4661C103.048 18.6893 103.435 18.7956 103.825 18.7673C104.572 18.7673 104.947 18.5384 104.947 18.1236C104.947 16.9791 99.8351 17.5829 99.8351 13.9866C99.8351 11.7197 101.747 10.5773 103.908 10.5773C104.72 10.5515 105.525 10.7443 106.237 11.1355C106.95 11.5266 107.544 12.1018 107.959 12.8012L105.3 14.2355C105.183 13.9632 104.989 13.7313 104.742 13.5686C104.494 13.406 104.204 13.3198 103.908 13.3209C103.368 13.3209 103.035 13.5309 103.035 13.9026C103.039 15.0881 108.15 14.2974 108.15 18.1436Z" fill="#1D2130"/>
<path d="M119.536 10.8681V21.2631H116.419V20.2856C116.059 20.7169 115.603 21.0568 115.087 21.2773C114.57 21.4978 114.009 21.5926 113.449 21.554C111.35 21.554 109.566 20.0577 109.566 17.249V10.8681H112.683V16.7922C112.657 17.0398 112.685 17.2901 112.765 17.5257C112.846 17.7612 112.977 17.9765 113.149 18.1563C113.321 18.3362 113.53 18.4765 113.761 18.5673C113.993 18.6581 114.242 18.6973 114.49 18.6822C115.633 18.6822 116.422 18.0176 116.422 16.5413V10.8713L119.536 10.8681Z" fill="#1D2130"/>
<path d="M137.409 14.8802V21.2621H134.292V15.1501C134.292 14.1106 133.793 13.4459 132.796 13.4459C131.757 13.4459 131.175 14.1736 131.175 15.4V21.2621H128.059V15.1501C128.059 14.1106 127.56 13.4459 126.562 13.4459C125.523 13.4459 124.942 14.1736 124.942 15.4V21.2621H121.825V10.8671H124.942V11.8226C125.265 11.3987 125.689 11.0625 126.176 10.8448C126.662 10.6271 127.195 10.5348 127.726 10.5763C128.26 10.5502 128.791 10.6628 129.268 10.9031C129.744 11.1434 130.151 11.5033 130.448 11.9476C130.793 11.4827 131.251 11.1132 131.777 10.8733C132.304 10.6335 132.883 10.5313 133.461 10.5763C135.846 10.5773 137.409 12.2815 137.409 14.8802Z" fill="#1D2130"/>
<path d="M140.045 10.8041C141.323 10.8041 142.358 9.76798 142.358 8.48988C142.358 7.21179 141.323 6.17569 140.045 6.17569C138.768 6.17569 137.732 7.21179 137.732 8.48988C137.732 9.76798 138.768 10.8041 140.045 10.8041Z" fill="#1D2130"/>
</g>
</svg>
