<svg width="124" height="26" viewBox="0 0 124 26" fill="none" xmlns="http://www.w3.org/2000/svg">
<g opacity="0.6">
<path d="M40.0897 20.543C39.4654 20.5766 38.848 20.4007 38.337 20.0438C38.1235 19.887 37.9517 19.681 37.8365 19.4436C37.7213 19.2062 37.6662 18.9446 37.6759 18.6814V9.04064C37.6708 8.99982 37.6751 8.95839 37.6886 8.91949C37.7021 8.8806 37.7244 8.84526 37.7537 8.81618C37.7831 8.7871 37.8187 8.76503 37.858 8.75167C37.8972 8.7383 37.939 8.73398 37.9802 8.73904H39.7433C39.9427 8.73904 40.0372 8.84304 40.0372 9.04064V17.9326C40.0372 18.3278 40.2156 18.5254 40.5829 18.5254C40.7386 18.5318 40.8944 18.5143 41.0447 18.4734C41.2546 18.4734 41.37 18.5358 41.3805 18.723L41.5379 20.023C41.5455 20.0609 41.5448 20.1 41.5358 20.1376C41.5269 20.1752 41.5099 20.2105 41.486 20.241C41.4621 20.2716 41.4319 20.2967 41.3974 20.3147C41.363 20.3327 41.325 20.3432 41.286 20.3454C40.8999 20.4718 40.4963 20.5385 40.0897 20.543Z" fill="#1D2130"/>
<path d="M50.0072 19.4303C49.1212 20.1557 48.0079 20.5525 46.8587 20.5525C45.7095 20.5525 44.5963 20.1557 43.7103 19.4303C42.9317 18.6513 42.4948 17.5992 42.4948 16.5027C42.4948 15.4062 42.9317 14.3541 43.7103 13.5751C44.598 12.8535 45.7106 12.4591 46.8587 12.4591C48.0069 12.4591 49.1195 12.8535 50.0072 13.5751C50.7679 14.3613 51.1926 15.4083 51.1926 16.4975C51.1926 17.5867 50.7679 18.6337 50.0072 19.4199V19.4303ZM45.3685 18.0575C45.7796 18.4266 46.3145 18.6309 46.8692 18.6309C47.424 18.6309 47.9589 18.4266 48.37 18.0575C48.7421 17.6335 48.947 17.0906 48.947 16.5287C48.947 15.9668 48.7421 15.4239 48.37 14.9999C47.9589 14.6308 47.424 14.4264 46.8692 14.4264C46.3145 14.4264 45.7796 14.6308 45.3685 14.9999C44.9964 15.4239 44.7915 15.9668 44.7915 16.5287C44.7915 17.0906 44.9964 17.6335 45.3685 18.0575Z" fill="#1D2130"/>
<path d="M60.9007 12.7222C61.1001 12.7222 61.1945 12.8262 61.1945 13.0238V20.4806C61.2128 20.9839 61.1178 21.4849 60.9163 21.9473C60.7148 22.4096 60.4119 22.8216 60.0296 23.1534C59.181 23.8705 58.0897 24.2421 56.9756 24.1934C55.9693 24.2285 54.9765 23.9562 54.1316 23.4134C53.7708 23.1786 53.4625 22.8728 53.226 22.515C52.9895 22.1572 52.8298 21.755 52.7568 21.3334C52.7568 21.1254 52.7568 21.0318 53.0401 21.0318H54.8032C54.8781 21.0344 54.9506 21.0583 55.0121 21.1007C55.0735 21.1432 55.1213 21.2023 55.1496 21.271C55.2639 21.5869 55.4919 21.8498 55.7897 22.0094C56.1527 22.195 56.5567 22.288 56.9651 22.2798C57.2116 22.2932 57.4582 22.2578 57.6906 22.1757C57.9231 22.0935 58.1367 21.9663 58.319 21.8014C58.4855 21.629 58.615 21.4249 58.6998 21.2014C58.7846 20.978 58.8228 20.7399 58.8122 20.5014V19.8462C58.1809 20.3064 57.4126 20.5443 56.6293 20.5222C56.0811 20.542 55.5345 20.4518 55.0223 20.257C54.5101 20.0622 54.0429 19.7668 53.6488 19.3886C52.8922 18.6129 52.4692 17.5763 52.4692 16.4974C52.4692 15.4186 52.8922 14.3819 53.6488 13.6062C54.0448 13.2314 54.5126 12.9389 55.0245 12.746C55.5363 12.5531 56.082 12.4637 56.6293 12.483C57.4353 12.4619 58.2243 12.7152 58.8647 13.2006V13.0342C58.8599 12.9944 58.8641 12.954 58.877 12.9159C58.8899 12.8779 58.9112 12.8431 58.9393 12.8143C58.9675 12.7854 59.0017 12.7631 59.0396 12.749C59.0776 12.7348 59.1182 12.7293 59.1585 12.7326L60.9007 12.7222ZM56.8287 18.671C57.0991 18.6793 57.368 18.6287 57.6164 18.5226C57.8649 18.4166 58.0868 18.2578 58.2665 18.0574C58.6154 17.6109 58.8047 17.0622 58.8047 16.4974C58.8047 15.9327 58.6154 15.384 58.2665 14.9374C58.0874 14.7398 57.8669 14.5833 57.6203 14.4791C57.3737 14.3749 57.1071 14.3255 56.8392 14.3342C56.5657 14.3257 56.2936 14.3762 56.0418 14.4821C55.7899 14.5881 55.5642 14.747 55.3804 14.9478C54.9939 15.375 54.7906 15.9346 54.8137 16.5078C54.7948 17.0755 54.9935 17.6292 55.3699 18.0574C55.5542 18.2578 55.7799 18.4163 56.0317 18.5222C56.2834 18.6281 56.5553 18.6789 56.8287 18.671Z" fill="#1D2130"/>
<path d="M70.2514 19.4302C69.3638 20.1519 68.2511 20.5463 67.103 20.5463C65.9549 20.5463 64.8422 20.1519 63.9546 19.4302C63.1932 18.6423 62.7682 17.5936 62.7682 16.5026C62.7682 15.4117 63.1932 14.3629 63.9546 13.575C64.8431 12.8553 65.9554 12.4621 67.103 12.4621C68.2506 12.4621 69.3629 12.8553 70.2514 13.575C71.0121 14.3612 71.4369 15.4083 71.4369 16.4974C71.4369 17.5866 71.0121 18.6337 70.2514 19.4198V19.4302ZM65.6023 18.0574C65.8035 18.2471 66.0406 18.3953 66.3 18.4935C66.5594 18.5917 66.8359 18.6379 67.1135 18.6294C67.3893 18.6365 67.6638 18.5896 67.9213 18.4915C68.1788 18.3933 68.4143 18.2458 68.6142 18.0574C68.9803 17.6306 69.1812 17.0888 69.1812 16.5286C69.1812 15.9685 68.9803 15.4267 68.6142 14.9998C68.4143 14.8114 68.1788 14.6639 67.9213 14.5658C67.6638 14.4676 67.3893 14.4208 67.1135 14.4278C66.8359 14.4194 66.5594 14.4656 66.3 14.5638C66.0406 14.662 65.8035 14.8102 65.6023 14.9998C65.2362 15.4267 65.0353 15.9685 65.0353 16.5286C65.0353 17.0888 65.2362 17.6306 65.6023 18.0574Z" fill="#1D2130"/>
<path d="M75.226 10.9543C74.9485 11.1949 74.5924 11.3275 74.2237 11.3275C73.855 11.3275 73.4989 11.1949 73.2215 10.9543C73.0957 10.8366 72.9955 10.6948 72.927 10.5374C72.8585 10.38 72.8232 10.2105 72.8232 10.0391C72.8232 9.86769 72.8585 9.69811 72.927 9.54074C72.9955 9.38336 73.0957 9.24151 73.2215 9.12388C73.5018 8.88927 73.8568 8.76056 74.2237 8.76056C74.5906 8.76056 74.9457 8.88927 75.226 9.12388C75.3517 9.24151 75.4519 9.38336 75.5204 9.54074C75.5889 9.69811 75.6243 9.86769 75.6243 10.0391C75.6243 10.2105 75.5889 10.38 75.5204 10.5374C75.4519 10.6948 75.3517 10.8366 75.226 10.9543ZM75.4463 20.5431C74.8225 20.5734 74.2061 20.3978 73.6937 20.0439C73.4835 19.8847 73.3147 19.678 73.2015 19.441C73.0883 19.204 73.034 18.9435 73.0431 18.6815V13.0239C73.038 12.9831 73.0423 12.9416 73.0558 12.9027C73.0693 12.8638 73.0916 12.8285 73.1209 12.7994C73.1503 12.7703 73.1859 12.7483 73.2252 12.7349C73.2644 12.7215 73.3062 12.7172 73.3474 12.7223H75.1105C75.3099 12.7223 75.4044 12.8263 75.4044 13.0239V17.9327C75.4044 18.3279 75.5828 18.5255 75.9396 18.5255C76.0987 18.5311 76.2579 18.5136 76.4119 18.4735C76.6218 18.4735 76.7372 18.5359 76.7477 18.7231L76.9051 20.0231C76.9127 20.061 76.912 20.1 76.903 20.1376C76.894 20.1753 76.8771 20.2105 76.8532 20.2411C76.8293 20.2716 76.7991 20.2967 76.7646 20.3148C76.7301 20.3328 76.6922 20.3432 76.6532 20.3455C76.2636 20.4726 75.8565 20.5393 75.4463 20.5431Z" fill="#1D2130"/>
<path d="M83.3909 12.4727C83.9417 12.4511 84.4911 12.5394 85.0067 12.7324C85.5223 12.9253 85.9936 13.219 86.3924 13.5959C87.1346 14.3852 87.5472 15.4239 87.5472 16.5027C87.5472 17.5815 87.1346 18.6202 86.3924 19.4095C85.9955 19.7898 85.5248 20.0863 85.0089 20.2811C84.493 20.476 83.9426 20.5651 83.3909 20.5431C82.605 20.5604 81.8349 20.3231 81.1975 19.8671V23.6215C81.1975 23.8191 81.0926 23.9127 80.8932 23.9127H79.1301C79.0899 23.9202 79.0484 23.9178 79.0093 23.9058C78.9702 23.8938 78.9347 23.8725 78.9057 23.8438C78.8768 23.8152 78.8553 23.7799 78.8432 23.7412C78.8311 23.7024 78.8287 23.6614 78.8362 23.6215V15.0935C78.8486 15.0101 78.8411 14.925 78.8143 14.8449C78.7876 14.7649 78.7423 14.6922 78.6822 14.6326C78.622 14.5729 78.5486 14.5281 78.4679 14.5016C78.3871 14.4751 78.3012 14.4677 78.217 14.4799H77.8707C77.6398 14.4799 77.5244 14.3967 77.5244 14.2303V13.0031C77.519 12.9272 77.5399 12.8517 77.5839 12.7892C77.6278 12.7268 77.692 12.6811 77.7658 12.6599C78.1288 12.5291 78.513 12.4657 78.8992 12.4727C79.2843 12.4389 79.6709 12.5199 80.0093 12.7051C80.3477 12.8904 80.6226 13.1716 80.7987 13.5127C81.1368 13.1738 81.541 12.9068 81.9867 12.728C82.4324 12.5492 82.9102 12.4623 83.3909 12.4727ZM81.7538 18.0575C81.9409 18.2513 82.1657 18.4055 82.4146 18.5109C82.6635 18.6163 82.9314 18.6706 83.202 18.6706C83.4727 18.6706 83.7406 18.6163 83.9895 18.5109C84.2384 18.4055 84.4632 18.2513 84.6503 18.0575C85.0445 17.6218 85.2516 17.051 85.2275 16.4663C85.255 15.8811 85.0474 15.309 84.6503 14.8751C84.4632 14.6813 84.2384 14.5271 83.9895 14.4217C83.7406 14.3163 83.4727 14.262 83.202 14.262C82.9314 14.262 82.6635 14.3163 82.4146 14.4217C82.1657 14.5271 81.9409 14.6813 81.7538 14.8751C81.3719 15.3167 81.1731 15.8853 81.1975 16.4663C81.1763 17.0469 81.3746 17.6144 81.7538 18.0575Z" fill="#1D2130"/>
<path d="M92.5003 20.543C91.5581 20.5814 90.6239 20.3581 89.8031 19.8982C89.4738 19.7016 89.1933 19.4341 88.9826 19.1154C88.7718 18.7968 88.6362 18.4351 88.5857 18.0574C88.5857 17.8494 88.6592 17.7454 88.8901 17.7454H90.4328C90.5062 17.7483 90.5774 17.7711 90.6385 17.8115C90.6996 17.8519 90.7483 17.9082 90.7791 17.9742C90.9995 18.5358 91.5767 18.8166 92.5003 18.8166C92.8224 18.8312 93.1432 18.7669 93.4343 18.6294C93.5348 18.5845 93.621 18.5133 93.6839 18.4236C93.7467 18.3338 93.7838 18.2288 93.7911 18.1198C93.7911 17.8494 93.6232 17.6622 93.2874 17.5374C92.889 17.406 92.4772 17.3188 92.0595 17.2774C91.5646 17.2219 91.0739 17.1351 90.5902 17.0174C90.1199 16.9119 89.6922 16.6692 89.3623 16.3206C89.1681 16.0837 89.0251 15.8097 88.9422 15.5156C88.8594 15.2216 88.8385 14.9138 88.8808 14.6114C88.9232 14.309 89.0278 14.0185 89.1883 13.7579C89.3487 13.4973 89.5616 13.2722 89.8136 13.0966C90.57 12.6191 91.4576 12.3865 92.3533 12.431C93.2206 12.402 94.0787 12.6146 94.8301 13.0446C95.1329 13.2146 95.3937 13.4494 95.5934 13.7318C95.7931 14.0143 95.9267 14.3373 95.9845 14.6774C95.9845 14.8854 95.8901 14.9894 95.7011 14.9894H94.1479C94.0825 14.9933 94.0175 14.9775 93.9613 14.944C93.9051 14.9106 93.8604 14.8612 93.8331 14.8022C93.7293 14.5559 93.5339 14.3586 93.2874 14.251C93.0092 14.1068 92.6986 14.0352 92.3848 14.043C92.0772 14.0264 91.7703 14.0873 91.4928 14.2198C91.395 14.2572 91.3107 14.3228 91.2509 14.408C91.191 14.4933 91.1583 14.5944 91.1569 14.6982C91.1636 14.8404 91.2162 14.9768 91.3068 15.0872C91.3975 15.1977 91.5215 15.2764 91.6607 15.3118C92.0637 15.4623 92.4827 15.567 92.9095 15.6238C93.4004 15.6878 93.8873 15.7781 94.3683 15.8942C94.8387 15.9997 95.2663 16.2424 95.5962 16.591C95.7726 16.7831 95.9089 17.0079 95.9972 17.2524C96.0855 17.497 96.124 17.7564 96.1104 18.0158C96.1195 18.3753 96.0343 18.731 95.8633 19.0482C95.6922 19.3653 95.4411 19.6331 95.1344 19.8254C94.3503 20.3243 93.4315 20.5746 92.5003 20.543Z" fill="#1D2130"/>
<path d="M107.203 20.023C107.209 20.06 107.208 20.0977 107.199 20.134C107.19 20.1703 107.174 20.2045 107.151 20.2346C107.129 20.2646 107.1 20.2899 107.068 20.3089C107.035 20.3279 106.999 20.3404 106.962 20.3454C106.579 20.4694 106.179 20.536 105.776 20.543C105.377 20.584 104.975 20.5222 104.607 20.3637C104.239 20.2052 103.919 19.9553 103.677 19.6382C102.936 20.2698 101.977 20.5939 101.001 20.543C100.548 20.5637 100.095 20.4902 99.6721 20.3272C99.2492 20.1643 98.8654 19.9154 98.5453 19.5966C98.2274 19.2626 97.9808 18.8685 97.8203 18.4378C97.6598 18.0072 97.5887 17.5488 97.6113 17.0902V13.0238C97.6113 12.8262 97.7057 12.7222 97.9051 12.7222H99.6682C99.8676 12.7222 99.9621 12.8262 99.9621 13.0238V16.7782C99.9429 17.246 100.104 17.7034 100.413 18.0574C100.568 18.2196 100.755 18.3472 100.963 18.4315C101.172 18.5158 101.396 18.5549 101.62 18.5462C101.85 18.5562 102.08 18.5209 102.296 18.4424C102.512 18.3638 102.711 18.2436 102.88 18.0886C103.04 17.9253 103.164 17.7312 103.245 17.5184C103.326 17.3055 103.363 17.0784 103.352 16.851V13.0238C103.352 12.8262 103.446 12.7222 103.646 12.7222H105.43C105.629 12.7222 105.724 12.8262 105.724 13.0238V17.9222C105.724 18.3278 105.902 18.5254 106.248 18.5254C106.411 18.5317 106.574 18.5142 106.731 18.4734C106.771 18.4624 106.813 18.4604 106.853 18.4677C106.894 18.4749 106.932 18.4911 106.965 18.5151C106.999 18.5391 107.026 18.5703 107.045 18.6063C107.065 18.6423 107.076 18.6822 107.077 18.723L107.203 20.023Z" fill="#1D2130"/>
<path d="M123.879 20.0231C123.889 20.0603 123.89 20.0992 123.882 20.1368C123.875 20.1744 123.859 20.2099 123.836 20.2407C123.812 20.2716 123.783 20.2969 123.749 20.315C123.715 20.3331 123.677 20.3435 123.638 20.3455C123.248 20.4712 122.841 20.5378 122.431 20.5431C121.807 20.575 121.19 20.3993 120.679 20.0439C120.457 19.8916 120.277 19.6876 120.155 19.45C120.032 19.2123 119.97 18.9484 119.975 18.6815V16.2375C119.998 15.7711 119.84 15.3139 119.535 14.9583C119.387 14.7957 119.206 14.6676 119.002 14.5831C118.799 14.4985 118.579 14.4597 118.359 14.4695C118.161 14.4621 117.963 14.4994 117.781 14.5786C117.6 14.6579 117.438 14.7771 117.31 14.9271C117.033 15.2756 116.891 15.7111 116.911 16.1543V19.9919C116.911 20.1895 116.817 20.2935 116.617 20.2935H114.843C114.802 20.2985 114.76 20.2942 114.721 20.2809C114.682 20.2675 114.646 20.2454 114.617 20.2163C114.588 20.1873 114.565 20.1519 114.552 20.113C114.538 20.0741 114.534 20.0327 114.539 19.9919V16.2375C114.562 15.7762 114.417 15.3222 114.13 14.9583C114.002 14.8054 113.842 14.6824 113.66 14.5979C113.479 14.5134 113.281 14.4696 113.08 14.4695C112.866 14.4609 112.653 14.4973 112.454 14.5761C112.255 14.655 112.075 14.7746 111.926 14.9271C111.626 15.2645 111.471 15.7051 111.496 16.1543V19.9919C111.501 20.0327 111.496 20.0741 111.483 20.113C111.469 20.1519 111.447 20.1873 111.418 20.2163C111.388 20.2454 111.353 20.2675 111.314 20.2809C111.274 20.2942 111.233 20.2985 111.191 20.2935H109.481C109.281 20.2935 109.187 20.1895 109.187 19.9919V15.0935C109.199 15.0101 109.192 14.9249 109.165 14.8449C109.138 14.7649 109.093 14.6922 109.033 14.6325C108.973 14.5729 108.899 14.5281 108.818 14.5016C108.738 14.4751 108.652 14.4676 108.568 14.4799H108.221C107.99 14.4799 107.875 14.3967 107.875 14.2303V13.0031C107.87 12.9271 107.891 12.8517 107.934 12.7892C107.978 12.7267 108.043 12.6811 108.116 12.6599C108.479 12.5291 108.864 12.4657 109.25 12.4727C109.621 12.4414 109.993 12.5146 110.323 12.6839C110.654 12.8532 110.929 13.1117 111.118 13.4295C111.472 13.0969 111.891 12.8403 112.35 12.6757C112.809 12.5111 113.297 12.442 113.784 12.4727C114.256 12.4498 114.728 12.5377 115.16 12.7292C115.592 12.9208 115.973 13.2106 116.271 13.5751C116.618 13.201 117.045 12.9081 117.52 12.7174C117.996 12.5268 118.508 12.4432 119.02 12.4727C119.478 12.4514 119.936 12.5246 120.364 12.6875C120.792 12.8504 121.182 13.0995 121.508 13.4191C121.827 13.7524 122.074 14.1464 122.234 14.5773C122.395 15.0081 122.465 15.4668 122.442 15.9255V17.9327C122.442 18.3279 122.62 18.5255 122.956 18.5255C123.119 18.533 123.281 18.5155 123.439 18.4735C123.656 18.4735 123.771 18.5567 123.785 18.7231L123.879 20.0231Z" fill="#1D2130"/>
<path d="M0.818467 11.3703C1.59273 8.28636 3.38592 5.54777 5.9125 3.5906C8.43908 1.63342 11.5538 0.57019 14.7607 0.57019C17.9676 0.57019 21.0823 1.63342 23.6089 3.5906C26.1355 5.54777 27.9287 8.28636 28.7029 11.3703H27.4436C25.3191 11.3393 23.2382 11.9685 21.4931 13.1695C21.3923 13.2418 21.2872 13.3078 21.1782 13.3671H21.0313C20.9223 13.3078 20.8172 13.2418 20.7164 13.1695C18.9558 11.9963 16.8823 11.3697 14.7607 11.3697C12.6391 11.3697 10.5655 11.9963 8.80494 13.1695C8.70423 13.2418 8.59908 13.3078 8.4901 13.3671H8.34318C8.2342 13.3078 8.12905 13.2418 8.02834 13.1695C6.28321 11.9685 4.2023 11.3393 2.07783 11.3703H0.818467ZM25.1767 17.8911C25.8232 17.3922 26.6244 17.1312 27.4436 17.1527H29.1332V13.8143H27.4436C26.0008 13.797 24.591 14.242 23.4241 15.0831C22.7674 15.5628 21.973 15.8217 21.1572 15.8217C20.3414 15.8217 19.547 15.5628 18.8904 15.0831C17.6939 14.2577 16.271 13.8153 14.8132 13.8153C13.3553 13.8153 11.9325 14.2577 10.736 15.0831C10.0793 15.5628 9.28493 15.8217 8.46911 15.8217C7.6533 15.8217 6.85891 15.5628 6.20226 15.0831C5.02097 14.2313 3.59096 13.7857 2.13031 13.8143H0.388184V17.1527H2.07783C2.89695 17.1312 3.6982 17.3922 4.34469 17.8911C5.539 18.717 6.96028 19.1599 8.41664 19.1599C9.873 19.1599 11.2943 18.717 12.4886 17.8911C13.1359 17.3937 13.9366 17.1329 14.7554 17.1527C15.5748 17.1294 16.3767 17.3906 17.0223 17.8911C18.2188 18.7165 19.6417 19.1589 21.0995 19.1589C22.5573 19.1589 23.9802 18.7165 25.1767 17.8911ZM25.1767 23.8607C25.8232 23.3618 26.6244 23.1008 27.4436 23.1223H29.1332V19.7839H27.4436C26.0008 19.7666 24.591 20.2116 23.4241 21.0527C22.7674 21.5325 21.973 21.7913 21.1572 21.7913C20.3414 21.7913 19.547 21.5325 18.8904 21.0527C17.6939 20.2273 16.271 19.7849 14.8132 19.7849C13.3553 19.7849 11.9325 20.2273 10.736 21.0527C10.0793 21.5325 9.28493 21.7913 8.46911 21.7913C7.6533 21.7913 6.85891 21.5325 6.20226 21.0527C5.02097 20.2009 3.59096 19.7553 2.13031 19.7839H0.388184V23.1223H2.07783C2.89695 23.1008 3.6982 23.3618 4.34469 23.8607C5.539 24.6866 6.96028 25.1295 8.41664 25.1295C9.873 25.1295 11.2943 24.6866 12.4886 23.8607C13.1359 23.3633 13.9366 23.1025 14.7554 23.1223C15.5748 23.099 16.3767 23.3602 17.0223 23.8607C18.2188 24.6861 19.6417 25.1285 21.0995 25.1285C22.5573 25.1285 23.9802 24.6861 25.1767 23.8607Z" fill="#1D2130"/>
</g>
</svg>
