<svg width="134" height="32" viewBox="0 0 134 32" fill="none" xmlns="http://www.w3.org/2000/svg">
<g opacity="0.6">
<path d="M38.1577 9.82298H41.5447V23.473H38.1577V9.82298ZM42.8952 18.3385C42.8952 14.9575 45.0054 12.931 48.1708 12.931C51.3361 12.931 53.4463 14.9575 53.4463 18.3385C53.4463 21.7195 51.41 23.767 48.1708 23.767C44.9316 23.767 42.8952 21.793 42.8952 18.3385ZM50.0911 18.3385C50.0911 16.48 49.363 15.388 48.2024 15.388C47.0418 15.388 46.3243 16.438 46.3243 18.3385C46.3243 20.239 47.0418 21.2785 48.2024 21.2785C49.363 21.2785 50.1122 20.239 50.1122 18.349L50.0911 18.3385ZM54.7969 24.1765H58.0677C58.2166 24.5269 58.4767 24.8192 58.8082 25.0088C59.1397 25.1984 59.5244 25.2749 59.9036 25.2265C61.2014 25.2265 61.8767 24.5335 61.8767 23.5045V21.6145H61.8873C61.6078 22.203 61.1558 22.6935 60.5908 23.0215C60.0258 23.3495 59.3743 23.4995 58.7219 23.452C56.2424 23.452 54.5964 21.5725 54.5964 18.3385C54.5964 15.1045 56.1685 13.0885 58.8169 13.0885C59.4859 13.0529 60.1496 13.2246 60.7165 13.58C61.2834 13.9354 61.7256 14.457 61.9822 15.073H61.8873V13.1725H65.2425V23.3995C65.2425 25.867 63.0479 27.4105 59.8192 27.4105C56.886 27.4 55.0079 26.0665 54.818 24.187L54.7969 24.1765ZM61.8873 18.3385C61.8873 16.69 61.1276 15.6505 59.9247 15.6505C58.7219 15.6505 57.9833 16.7005 57.9833 18.3385C57.9833 19.9765 58.7114 20.9425 59.9247 20.9425C61.1381 20.9425 61.8873 20.05 61.8873 18.3385ZM66.5825 18.3385C66.5825 14.9575 68.6927 12.931 71.8581 12.931C75.0234 12.931 77.1336 14.9575 77.1336 18.3385C77.1336 21.7195 75.0867 23.767 71.8581 23.767C68.6294 23.767 66.6036 21.793 66.6036 18.3385H66.5825ZM73.7784 18.3385C73.7784 16.48 73.0398 15.388 71.8897 15.388C70.7397 15.388 70.0116 16.438 70.0116 18.3385C70.0116 20.239 70.7291 21.2785 71.8897 21.2785C73.0504 21.2785 73.7995 20.239 73.7995 18.349L73.7784 18.3385ZM78.5053 10.684C78.4906 10.3406 78.5794 10.0008 78.7603 9.7081C78.9413 9.41542 79.2061 9.18331 79.5207 9.04163C79.8353 8.89996 80.1853 8.8552 80.5257 8.91311C80.8661 8.97101 81.1813 9.12895 81.4307 9.36658C81.6802 9.60422 81.8524 9.91069 81.9254 10.2466C81.9984 10.5825 81.9687 10.9324 81.8402 11.2513C81.7117 11.5703 81.4902 11.8437 81.2043 12.0364C80.9183 12.229 80.581 12.3322 80.2357 12.3325C80.015 12.3381 79.7954 12.3 79.5896 12.2204C79.3839 12.1408 79.196 12.0214 79.037 11.869C78.878 11.7166 78.751 11.5343 78.6633 11.3327C78.5757 11.1311 78.5291 10.9141 78.5264 10.6945L78.5053 10.684ZM78.5053 13.162H81.9344V23.515H78.5581L78.5053 13.162ZM94.2687 18.3385C94.2687 21.709 92.7493 23.662 90.1643 23.662C89.5025 23.7026 88.8441 23.5401 88.2781 23.1965C87.712 22.8529 87.2655 22.3447 86.999 21.7405H86.9357V26.8435H83.5487V13.1935H86.9146V15.0415H86.9779C87.2353 14.4254 87.6774 13.9033 88.2438 13.5463C88.8102 13.1893 89.4735 13.0148 90.1432 13.0465C92.8021 13.0255 94.332 14.968 94.332 18.349L94.2687 18.3385ZM90.8185 18.3385C90.8185 16.7005 90.0482 15.64 88.856 15.64C87.6637 15.64 86.9146 16.69 86.904 18.3385C86.8935 19.987 87.6637 21.0265 88.856 21.0265C90.0482 21.0265 90.8818 20.05 90.8818 18.349L90.8185 18.3385ZM100.051 12.9205C102.889 12.9205 104.651 14.254 104.672 16.396H101.581C101.581 15.6505 100.958 15.1885 100.03 15.1885C99.1011 15.1885 98.658 15.5455 98.658 16.081C98.658 16.6165 99.0484 16.7845 99.8292 16.942L102.003 17.383C104.113 17.824 104.957 18.664 104.957 20.2285C104.957 22.3285 103.005 23.7565 100.103 23.7565C97.2019 23.7565 95.3133 22.3705 95.1761 20.26H98.4575C98.5525 21.0265 99.1644 21.478 100.156 21.478C101.148 21.478 101.612 21.163 101.612 20.6065C101.612 20.05 101.296 19.9555 100.483 19.7875L98.5208 19.378C96.4844 18.9475 95.4188 17.887 95.4188 16.3015C95.4821 14.2435 97.2547 12.931 100.114 12.931L100.051 12.9205ZM116.299 23.5045H113.018V21.562H112.955C112.771 22.2099 112.371 22.7762 111.821 23.1675C111.27 23.5588 110.602 23.7517 109.927 23.7145C109.417 23.731 108.909 23.64 108.437 23.4475C107.965 23.255 107.539 22.9653 107.187 22.5974C106.835 22.2296 106.566 21.7919 106.396 21.313C106.226 20.8342 106.16 20.325 106.202 19.819V13.1725H109.589V19.0945C109.589 20.3125 110.233 20.974 111.288 20.974C111.535 20.9721 111.779 20.9174 112.004 20.8136C112.228 20.7098 112.428 20.5592 112.589 20.3721C112.75 20.185 112.869 19.9657 112.937 19.729C113.006 19.4923 113.023 19.2437 112.986 19V13.1725H116.363L116.299 23.5045ZM117.935 13.162H121.227V15.157H121.301C121.483 14.5179 121.872 13.9568 122.409 13.5617C122.945 13.1665 123.598 12.9594 124.266 12.973C124.936 12.915 125.603 13.1078 126.138 13.5136C126.672 13.9195 127.036 14.5092 127.157 15.1675H127.304C127.515 14.5057 127.94 13.9318 128.512 13.5349C129.085 13.1381 129.773 12.9405 130.47 12.973C130.933 12.9554 131.395 13.0354 131.824 13.2077C132.254 13.38 132.643 13.6407 132.965 13.9727C133.286 14.3048 133.534 14.7007 133.691 15.1346C133.849 15.5685 133.912 16.0305 133.878 16.4905V23.515H130.47V17.3515C130.47 16.3015 129.974 15.7135 129.014 15.7135C128.801 15.71 128.589 15.7524 128.395 15.8377C128.2 15.9231 128.025 16.0494 127.884 16.208C127.743 16.3665 127.638 16.5536 127.576 16.7565C127.514 16.9593 127.497 17.173 127.526 17.383V23.515H124.297V17.32C124.297 16.27 123.78 15.7135 122.852 15.7135C122.637 15.7118 122.424 15.7559 122.227 15.8429C122.03 15.9299 121.855 16.0577 121.712 16.2178C121.569 16.3779 121.462 16.5666 121.398 16.7712C121.335 16.9758 121.316 17.1915 121.343 17.404V23.515H117.956L117.935 13.162Z" fill="#1D2130"/>
<path d="M31.4577 10.7156C31.4578 8.62575 30.8236 6.58461 29.6383 4.85952C28.4529 3.13444 26.7717 1.80583 24.8147 1.04772C22.8578 0.289614 20.7164 0.137361 18.671 0.610903C16.6256 1.08444 14.7716 2.1617 13.3519 3.70157H0.184082V31.3586H27.9863V18.4331C29.0776 17.4618 29.9507 16.2724 30.5489 14.9426C31.147 13.6129 31.4567 12.1725 31.4577 10.7156ZM26.1082 10.7156C26.1103 11.717 25.8138 12.6965 25.2563 13.5302C24.6987 14.3638 23.9052 15.0141 22.9761 15.3988C22.047 15.7835 21.0241 15.8852 20.0369 15.6911C19.0497 15.497 18.1425 15.0158 17.4302 14.3085C16.7179 13.6011 16.2325 12.6993 16.0354 11.7173C15.8383 10.7353 15.9384 9.71713 16.3231 8.79174C16.7077 7.86635 17.3595 7.07531 18.1961 6.51873C19.0326 5.96216 20.0163 5.66507 21.0226 5.66507C22.3696 5.66507 23.6615 6.19683 24.615 7.14369C25.5684 8.09054 26.1054 9.37513 26.1082 10.7156ZM22.6369 26.0351H5.53351V9.02507H10.7458C10.6451 9.5831 10.5921 10.1486 10.5875 10.7156C10.5903 13.4689 11.6906 16.1086 13.647 18.0554C15.6033 20.0023 18.2559 21.0973 21.0226 21.1001C21.5635 21.0972 22.1033 21.0516 22.6369 20.9636V26.0351Z" fill="#1D2130"/>
</g>
</svg>
