<svg width="20" height="20" viewBox="0 0 20 20" fill="none" xmlns="http://www.w3.org/2000/svg">
<path d="M17.8737 14.1639V15.1428C17.8737 15.7906 17.4432 16.3446 16.8399 16.5609C16.8402 16.5855 16.8408 16.61 16.8408 16.6347V19.3039C18.0952 19.0566 19.0408 17.9986 19.0408 16.7347V14.1637L17.8737 14.1639Z" fill="#DDFFDF"/>
<path d="M9.76751 6.80729V5.78374C9.76751 4.89776 9.42189 4.03902 8.794 3.3654C8.20623 2.73483 7.43306 2.33416 6.59765 2.22298C6.41271 2.05295 6.07503 1.74273 5.73644 1.4331C5.44362 1.16522 5.20955 0.95184 5.04033 0.798909C4.94329 0.711209 4.86196 0.63815 4.80428 0.58727C4.67809 0.475942 4.44341 0.268506 4.09566 0.402593L3.7235 0.546391L3.77233 2.74454L3.68062 2.80745C3.08217 3.21827 2.68132 3.85058 2.57833 4.54464L0.981953 5.5563L0.976613 6.25138C0.972798 6.78149 1.18703 7.28044 1.5801 7.65661C1.97332 8.03277 2.497 8.23992 3.05501 8.23992H4.27068V9.25912C4.27068 9.76546 4.35628 10.2657 4.52474 10.7461L5.42592 13.3143V17.2155C4.48049 17.4265 3.77309 18.2341 3.77095 19.1953L3.76897 19.3572L7.24843 19.3577C7.34365 18.492 8.01214 17.7851 8.88555 17.5879V16.9076C8.88555 15.0463 10.4793 13.5322 12.4384 13.5322H12.5243V14.641H12.4384C11.1229 14.641 10.0527 15.6577 10.0527 16.9076V18.6416H9.38115C8.91942 18.6416 8.53109 18.9479 8.42946 19.3578L15.7081 19.359V16.6348C15.7081 14.2147 14.7532 11.9053 13.0193 10.1324L9.76751 6.80729Z" fill="#DDFFDF"/>
</svg>
