<svg width="18" height="14" viewBox="0 0 18 14" fill="none" xmlns="http://www.w3.org/2000/svg">
<path d="M17.797 12.8003C17.5191 12.6071 17.2746 12.37 17.0729 12.0982C16.5902 11.5497 15.9759 10.8695 14.835 10.8695C13.694 10.8695 13.1016 11.5277 12.597 12.1201C12.0923 12.7125 11.7632 13.0636 11.0172 13.0636C10.2712 13.0636 9.89822 12.6467 9.43748 12.1201C8.97673 11.5935 8.36236 10.8695 7.19948 10.8695C6.0366 10.8695 5.46616 11.5277 4.96149 12.1201C4.45686 12.7125 4.12773 13.0636 3.38175 13.0636C2.63576 13.0636 2.26275 12.6467 1.802 12.1201C1.48879 11.7065 1.09273 11.3627 0.639121 11.1108C0.420991 11.0018 0.155783 11.0902 0.0467178 11.3083C-0.0623472 11.5264 0.0260555 11.7916 0.244185 11.9007C0.588683 12.1083 0.893325 12.3758 1.14375 12.6906C1.64838 13.283 2.24078 13.9412 3.38175 13.9412C4.52271 13.9412 5.11507 13.283 5.61974 12.6906C6.12437 12.0982 6.4535 11.7471 7.19948 11.7471C7.94546 11.7471 8.31848 12.164 8.77922 12.6906C9.23997 13.2172 9.85433 13.9412 11.0172 13.9412C12.1801 13.9412 12.7505 13.283 13.2552 12.6906C13.7598 12.0982 14.089 11.7471 14.835 11.7471C15.5809 11.7471 15.9539 12.164 16.4147 12.6906C16.6704 13.0189 16.9736 13.3073 17.3143 13.5462C17.5203 13.6795 17.7953 13.6206 17.9286 13.4146C18.062 13.2086 18.003 12.9336 17.797 12.8003Z" fill="#DDFFDF"/>
<path d="M17.797 9.50912C17.5191 9.31598 17.2746 9.07883 17.0729 8.80703C16.5902 8.25851 15.9759 7.57833 14.835 7.57833C13.694 7.57833 13.1016 8.23655 12.597 8.82899C12.0923 9.42139 11.7632 9.77244 11.0172 9.77244C10.2712 9.77244 9.89822 9.35554 9.43748 8.82899C8.97673 8.3024 8.36236 7.57833 7.19948 7.57833C6.0366 7.57833 5.46616 8.23655 4.96149 8.82899C4.45686 9.42139 4.12773 9.77244 3.38175 9.77244C2.63576 9.77244 2.26275 9.35554 1.802 8.82899C1.48879 8.41532 1.09273 8.07158 0.639121 7.81969C0.420991 7.71062 0.155783 7.79903 0.0467178 8.01716C-0.0623472 8.23529 0.0260555 8.50049 0.244185 8.60956C0.588683 8.81719 0.893325 9.08471 1.14375 9.39943C1.64838 9.99183 2.24078 10.6501 3.38175 10.6501C4.52271 10.6501 5.11507 9.99187 5.61974 9.39943C6.12437 8.80703 6.4535 8.45598 7.19948 8.45598C7.94546 8.45598 8.31848 8.87288 8.77922 9.39943C9.23997 9.92602 9.85433 10.6501 11.0172 10.6501C12.1801 10.6501 12.7505 9.99187 13.2552 9.39943C13.7598 8.80703 14.089 8.45598 14.835 8.45598C15.5809 8.45598 15.9539 8.87288 16.4147 9.39943C16.6704 9.72776 16.9736 10.0161 17.3143 10.2551C17.5203 10.3884 17.7953 10.3295 17.9286 10.1235C18.062 9.9175 18.003 9.64242 17.797 9.50912Z" fill="#DDFFDF"/>
<path d="M17.797 5.99845C17.5191 5.80531 17.2746 5.56815 17.0729 5.29635C16.5902 4.74784 15.9759 4.06766 14.835 4.06766C13.694 4.06766 13.1016 4.72587 12.597 5.31832C12.0923 5.91076 11.7632 6.26177 11.0172 6.26177C10.2712 6.26177 9.89822 5.84487 9.43748 5.31832C8.97673 4.79177 8.36236 4.06766 7.19948 4.06766C6.0366 4.06766 5.46616 4.72587 4.96149 5.31832C4.45686 5.91072 4.12773 6.26177 3.38175 6.26177C2.63576 6.26177 2.26275 5.84487 1.802 5.31832C1.48879 4.90465 1.09273 4.56091 0.639121 4.30902C0.420991 4.19995 0.155783 4.28835 0.0467178 4.50648C-0.0623472 4.72461 0.0260555 4.98982 0.244185 5.09889C0.588683 5.30652 0.893325 5.57403 1.14375 5.88876C1.64838 6.48116 2.24078 7.13941 3.38175 7.13941C4.52271 7.13941 5.11507 6.4812 5.61974 5.88876C6.12437 5.29635 6.4535 4.9453 7.19948 4.9453C7.94546 4.9453 8.31848 5.3622 8.77922 5.88876C9.23997 6.41531 9.85433 7.13941 11.0172 7.13941C12.1801 7.13941 12.7505 6.4812 13.2552 5.88876C13.7599 5.29631 14.089 4.9453 14.835 4.9453C15.5809 4.9453 15.9539 5.3622 16.4147 5.88876C16.6704 6.21708 16.9736 6.50548 17.3143 6.74444C17.5203 6.87773 17.7953 6.81881 17.9286 6.61278C18.062 6.40683 18.003 6.13175 17.797 5.99845Z" fill="#DDFFDF"/>
<path d="M0.244358 1.80784C0.588855 2.01547 0.893498 2.28298 1.14392 2.59771C1.64855 3.19011 2.24096 3.84836 3.38192 3.84836C4.52288 3.84836 5.11524 3.19015 5.61991 2.59771C6.12454 2.0053 6.45367 1.65425 7.19965 1.65425C7.94564 1.65425 8.31865 2.07115 8.7794 2.59771C9.24014 3.1243 9.85451 3.84836 11.0174 3.84836C12.1803 3.84836 12.7507 3.19015 13.2554 2.59771C13.76 2.0053 14.0891 1.65425 14.8351 1.65425C15.5811 1.65425 15.9541 2.07115 16.4149 2.59771C16.6706 2.92603 16.9738 3.21442 17.3144 3.45343C17.5204 3.58672 17.7955 3.52776 17.9288 3.32177C18.0621 3.11577 18.0032 2.8407 17.7971 2.7074C17.5192 2.51426 17.2747 2.2771 17.0731 2.0053C16.5904 1.45679 15.976 0.776611 14.8351 0.776611C13.6942 0.776611 13.1018 1.43482 12.5971 2.02727C12.0925 2.61967 11.7633 2.97072 11.0173 2.97072C10.2714 2.97072 9.89835 2.55382 9.43761 2.02727C8.97686 1.50067 8.3625 0.776611 7.19961 0.776611C6.03673 0.776611 5.46629 1.43482 4.96162 2.02727C4.45699 2.61967 4.12786 2.97072 3.38188 2.97072C2.63589 2.97072 2.26296 2.55382 1.80218 2.02723C1.48897 1.61356 1.0929 1.26982 0.639293 1.01792C0.421163 0.908858 0.155955 0.997261 0.04689 1.21539C-0.062175 1.43352 0.0262697 1.69877 0.244358 1.80784Z" fill="#DDFFDF"/>
</svg>
